<?xml version="1.0" encoding="UTF-8"?>
<svg id="Calque_1" data-name="Calque 1" xmlns="http://www.w3.org/2000/svg" viewBox="0 0 71.02 54">
  <path d="M21.26,0c26.78,3.34,35.62,42.35,4.53,44.13l2.68-8.26c16.2,1.32,11.24-23.16-12.54-19.92v38.05H0V0h21.26ZM12.91,5.35c-1.41,0-2.55,1.02-2.55,2.29s1.14,2.29,2.55,2.29,2.55-1.02,2.55-2.29-1.14-2.29-2.55-2.29Z" fill="#362e28"/>
  <path d="M49.76,0c-26.78,3.34-35.62,42.35-4.53,44.13l-2.68-8.26c-16.2,1.32-11.24-23.16,12.54-19.92v38.05h15.93V0h-21.26ZM58.1,5.35c1.41,0,2.55,1.02,2.55,2.29s-1.14,2.29-2.55,2.29-2.55-1.02-2.55-2.29,1.14-2.29,2.55-2.29Z" fill="#c59063"/>
</svg>